<?xml version="1.0" encoding="utf-8"?>
<!-- Generator: Adobe Illustrator 27.5.0, SVG Export Plug-In . SVG Version: 6.00 Build 0)  -->
<svg version="1.1" xmlns="http://www.w3.org/2000/svg" xmlns:xlink="http://www.w3.org/1999/xlink" x="0px" y="0px"
	 viewBox="0 0 1122 1122" style="enable-background:new 0 0 1122 1122;" xml:space="preserve">
<g id="background">
	<rect id="XMLID_115_" style="fill:#FFFFFF;" width="1122" height="1122"/>
</g>
<g id="Background1">
	<ellipse id="XMLID_1183_" style="fill:#CBE9FF;" cx="555.656" cy="545.054" rx="322.641" ry="316.965"/>
</g>
<g id="Object">
	<g id="XMLID_785_">
		<path id="XMLID_792_" style="fill:#124460;" d="M436.908,882.414l-27.622-4.484c-5.697-0.925-9.055-4.388-7.463-7.697
			l114.505-237.901c1.592-3.309,7.557-5.259,13.253-4.334l27.622,4.484c5.697,0.925,9.055,4.388,7.463,7.697L450.161,878.08
			C448.569,881.389,442.605,883.339,436.908,882.414z"/>
		<path id="XMLID_791_" style="fill:#124460;" d="M687.43,882.414l27.622-4.484c5.697-0.925,9.055-4.388,7.463-7.697L608.01,632.332
			c-1.592-3.309-7.557-5.259-13.253-4.334l-27.622,4.484c-5.697,0.925-9.055,4.388-7.463,7.697L674.177,878.08
			C675.769,881.389,681.733,883.339,687.43,882.414z"/>
		<ellipse id="XMLID_790_" style="fill:#CB5840;" cx="557.922" cy="531.701" rx="236.78" ry="232.614"/>
		<ellipse id="XMLID_789_" style="fill:#FFAA22;" cx="557.922" cy="531.701" rx="156.27" ry="153.521"/>
		<ellipse id="XMLID_788_" style="fill:#FFFFFF;" cx="557.922" cy="531.701" rx="86.909" ry="85.38"/>
		<ellipse id="XMLID_787_" style="fill:#CB5840;" cx="557.922" cy="531.701" rx="47.609" ry="46.771"/>
		<polygon id="XMLID_786_" style="fill:#103947;" points="832.009,405.907 838.067,417.87 971.875,352.415 928.458,350.228 
			952.861,314.866 819.053,380.321 825.136,392.335 609.218,498.056 603.126,486.047 555.656,532.75 622.194,523.631 
			616.101,511.622 		"/>
	</g>
</g>
</svg>
